<svg width="16" height="30" viewBox="0 0 16 30" fill="none" xmlns="http://www.w3.org/2000/svg">
<path d="M10.5599 21.4052V22.5354M10.5599 15.754V16.8843M10.5599 10.1029V11.2331M6.0416 21.4052V22.5354M6.0416 15.754V16.8843M6.0416 10.1029V11.2331M15.0824 28.5421V6.39698C15.0823 6.15966 15.0076 5.92838 14.8689 5.73583C14.7301 5.54328 14.5344 5.39922 14.3093 5.32401L3.00693 1.55655C2.83698 1.49959 2.65592 1.48393 2.47871 1.51085C2.30151 1.53778 2.13327 1.60651 1.98791 1.71137C1.84255 1.81623 1.72425 1.9542 1.6428 2.11386C1.56135 2.27352 1.5191 2.45029 1.51953 2.62952V28.5421H15.0824Z" stroke="#A0A3BD" stroke-width="1.6" stroke-linecap="round" stroke-linejoin="round"/>
</svg>
