<svg width="1025" height="246" viewBox="0 0 1025 246" fill="none" xmlns="http://www.w3.org/2000/svg">
<rect width="246" height="246" rx="31" fill="#FF3951"/>
<g clip-path="url(#clip0_1_480)">
<g clip-path="url(#clip1_1_480)">
<g clip-path="url(#clip2_1_480)">
<g clip-path="url(#clip3_1_480)">
<path d="M392.593 204.725H365.396L358.228 170.57H320.7L313.743 204.725H286.968L323.652 59.0415H356.12L392.593 204.725ZM339.464 79.492L324.917 150.331H354.222L339.464 79.492ZM458.794 45.7593L484.726 48.5001V204.725H461.745L460.48 191.864C453.874 202.546 445.371 207.887 434.97 207.887C423.445 207.887 414.618 202.715 408.49 192.37C402.39 182.054 399.34 167.619 399.34 149.066C399.34 137.259 400.914 126.886 404.062 117.947C407.239 109.036 411.638 102.191 417.26 97.4125C422.882 92.6337 429.348 90.2443 436.657 90.2443C445.652 90.2443 453.031 93.969 458.794 101.418V45.7593ZM442.349 188.28C445.582 188.28 448.491 187.156 451.077 184.907C453.692 182.658 456.264 179.425 458.794 175.209V121.025C454.296 113.436 449.166 109.641 443.403 109.641C432.018 109.641 426.326 122.712 426.326 148.855C426.326 163.051 427.732 173.171 430.543 179.214C433.354 185.258 437.289 188.28 442.349 188.28ZM561.046 93.1959H586.556L557.462 204.725H526.892L496.954 93.1959H523.729L542.071 183.853L561.046 93.1959ZM678.225 146.325C678.225 147.59 678.014 151.174 677.593 157.077H620.036C620.598 168.603 622.608 176.642 626.066 181.196C629.495 185.778 634.373 188.069 640.697 188.069C645.055 188.069 648.99 187.324 652.504 185.834C656.018 184.373 659.813 182.025 663.889 178.793L674.641 193.551C664.802 203.108 652.996 207.887 639.222 207.887C624.604 207.887 613.402 202.827 605.615 192.707C597.801 182.588 593.893 168.321 593.893 149.909C593.893 131.497 597.618 116.949 605.067 106.267C612.517 95.5853 623.058 90.2443 636.692 90.2443C649.763 90.2443 659.953 94.9809 667.262 104.454C674.571 113.956 678.225 127.912 678.225 146.325ZM652.926 140.211V138.735C652.926 128.194 651.661 120.491 649.131 115.628C646.601 110.793 642.525 108.376 636.902 108.376C631.702 108.376 627.738 110.723 625.012 115.417C622.257 120.14 620.598 128.404 620.036 140.211H652.926ZM745.48 90.4551C748.712 90.4551 751.594 90.9471 754.124 91.9309L749.907 116.809C747.096 116.106 744.496 115.755 742.106 115.755C736.765 115.755 732.549 118.074 729.457 122.712C726.364 127.35 723.975 134.237 722.288 143.373V204.725H696.356V93.1959H718.915L720.813 112.592C726.013 97.8342 734.235 90.4551 745.48 90.4551ZM813.156 183.642L822.222 199.665C815.334 205.146 807.253 207.887 797.976 207.887C788.278 207.887 780.899 205.104 775.839 199.538C770.779 194.001 768.249 186.453 768.249 176.895V111.96H755.178V93.1959H768.249V68.5289L794.181 65.3664V93.1959H815.264L812.734 111.96H794.181V176.895C794.181 183.642 797.063 187.015 802.825 187.015C804.652 187.015 806.269 186.762 807.674 186.256C809.08 185.778 810.907 184.907 813.156 183.642ZM832.974 93.1959H858.906V204.725H832.974V93.1959ZM845.835 37.5369C850.473 37.5369 854.226 39.0127 857.093 41.9644C859.988 44.916 861.436 48.7109 861.436 53.3491C861.436 57.8468 859.988 61.5715 857.093 64.5231C854.226 67.4747 850.473 68.9505 845.835 68.9505C841.196 68.9505 837.429 67.4747 834.534 64.5231C831.667 61.5715 830.233 57.8468 830.233 53.3491C830.233 48.7109 831.667 44.916 834.534 41.9644C837.429 39.0127 841.196 37.5369 845.835 37.5369ZM913.89 90.2443C927.102 90.2443 938.276 94.6014 947.412 103.316L937.503 117.441C933.568 114.63 929.843 112.522 926.329 111.116C922.815 109.711 919.231 109.008 915.577 109.008C911.501 109.008 908.31 110.09 906.005 112.255C903.672 114.448 902.505 117.441 902.505 121.236C902.505 125.031 903.813 128.081 906.427 130.386C909.013 132.719 914.242 135.432 922.113 138.524C931.811 142.319 938.979 146.817 943.617 152.017C948.255 157.218 950.575 164.175 950.575 172.889C950.575 183.712 946.78 192.244 939.19 198.484C931.6 204.753 921.972 207.887 910.306 207.887C902.716 207.887 895.731 206.51 889.35 203.755C882.94 201.028 877.346 197.205 872.568 192.286L885.217 178.371C893.088 185.258 901.1 188.702 909.252 188.702C913.89 188.702 917.545 187.479 920.215 185.033C922.886 182.56 924.221 179.144 924.221 174.787C924.221 171.554 923.659 168.926 922.534 166.902C921.41 164.85 919.442 162.938 916.631 161.167C913.82 159.424 909.603 157.499 903.981 155.391C894.283 151.596 887.368 147.168 883.236 142.108C879.075 137.048 876.995 130.583 876.995 122.712C876.995 113.295 880.34 105.522 887.031 99.3943C893.693 93.2943 902.646 90.2443 913.89 90.2443ZM1015.93 90.4551C1019.16 90.4551 1022.05 90.9471 1024.58 91.9309L1020.36 116.809C1017.55 116.106 1014.95 115.755 1012.56 115.755C1007.22 115.755 1003 118.074 999.909 122.712C996.816 127.35 994.427 134.237 992.74 143.373V204.725H966.808V93.1959H989.367L991.265 112.592C996.465 97.8342 1004.69 90.4551 1015.93 90.4551Z" fill="#14142B"/>
</g>
</g>
</g>
</g>
<g clip-path="url(#clip4_1_480)">
<g clip-path="url(#clip5_1_480)">
<path d="M36.5269 166.144C39.9499 166.144 42.7249 163.369 42.7249 159.946C42.7249 156.522 39.9499 153.747 36.5269 153.747C33.1038 153.747 30.3289 156.522 30.3289 159.946C30.3289 163.369 33.1038 166.144 36.5269 166.144Z" fill="white"/>
<path d="M36.5269 184.738C39.9499 184.738 42.7249 181.963 42.7249 178.54C42.7249 175.117 39.9499 172.342 36.5269 172.342C33.1038 172.342 30.3289 175.117 30.3289 178.54C30.3289 181.963 33.1038 184.738 36.5269 184.738Z" fill="white"/>
<path d="M36.5269 203.332C39.9499 203.332 42.7249 200.557 42.7249 197.134C42.7249 193.711 39.9499 190.936 36.5269 190.936C33.1038 190.936 30.3289 193.711 30.3289 197.134C30.3289 200.557 33.1038 203.332 36.5269 203.332Z" fill="white"/>
<path d="M36.5269 221.926C39.9499 221.926 42.7249 219.151 42.7249 215.728C42.7249 212.305 39.9499 209.53 36.5269 209.53C33.1038 209.53 30.3289 212.305 30.3289 215.728C30.3289 219.151 33.1038 221.926 36.5269 221.926Z" fill="white"/>
<path d="M58.22 166.144C61.6431 166.144 64.418 163.369 64.418 159.946C64.418 156.522 61.6431 153.747 58.22 153.747C54.7969 153.747 52.022 156.522 52.022 159.946C52.022 163.369 54.7969 166.144 58.22 166.144Z" fill="white"/>
<path d="M58.22 184.738C61.6431 184.738 64.418 181.963 64.418 178.54C64.418 175.117 61.6431 172.342 58.22 172.342C54.7969 172.342 52.022 175.117 52.022 178.54C52.022 181.963 54.7969 184.738 58.22 184.738Z" fill="white"/>
<path d="M58.22 203.332C61.6431 203.332 64.418 200.557 64.418 197.134C64.418 193.711 61.6431 190.936 58.22 190.936C54.7969 190.936 52.022 193.711 52.022 197.134C52.022 200.557 54.7969 203.332 58.22 203.332Z" fill="white"/>
<path d="M58.22 221.926C61.6431 221.926 64.418 219.151 64.418 215.728C64.418 212.305 61.6431 209.53 58.22 209.53C54.7969 209.53 52.022 212.305 52.022 215.728C52.022 219.151 54.7969 221.926 58.22 221.926Z" fill="white"/>
<path d="M58.22 91.7673C61.6431 91.7673 64.418 88.9923 64.418 85.5692C64.418 82.1462 61.6431 79.3712 58.22 79.3712C54.7969 79.3712 52.022 82.1462 52.022 85.5692C52.022 88.9923 54.7969 91.7673 58.22 91.7673Z" fill="white"/>
<path d="M58.22 110.361C61.6431 110.361 64.418 107.586 64.418 104.163C64.418 100.74 61.6431 97.9653 58.22 97.9653C54.7969 97.9653 52.022 100.74 52.022 104.163C52.022 107.586 54.7969 110.361 58.22 110.361Z" fill="white"/>
<path d="M58.22 128.955C61.6431 128.955 64.418 126.18 64.418 122.757C64.418 119.334 61.6431 116.559 58.22 116.559C54.7969 116.559 52.022 119.334 52.022 122.757C52.022 126.18 54.7969 128.955 58.22 128.955Z" fill="white"/>
<path d="M58.22 147.549C61.6431 147.549 64.418 144.775 64.418 141.351C64.418 137.928 61.6431 135.153 58.22 135.153C54.7969 135.153 52.022 137.928 52.022 141.351C52.022 144.775 54.7969 147.549 58.22 147.549Z" fill="white"/>
<path d="M79.9131 203.332C83.3362 203.332 86.1111 200.557 86.1111 197.134C86.1111 193.711 83.3362 190.936 79.9131 190.936C76.49 190.936 73.7151 193.711 73.7151 197.134C73.7151 200.557 76.49 203.332 79.9131 203.332Z" fill="white"/>
<path d="M79.9131 221.926C83.3362 221.926 86.1111 219.151 86.1111 215.728C86.1111 212.305 83.3362 209.53 79.9131 209.53C76.49 209.53 73.7151 212.305 73.7151 215.728C73.7151 219.151 76.49 221.926 79.9131 221.926Z" fill="white"/>
<path d="M101.606 166.144C105.029 166.144 107.804 163.369 107.804 159.946C107.804 156.522 105.029 153.747 101.606 153.747C98.1832 153.747 95.4082 156.522 95.4082 159.946C95.4082 163.369 98.1832 166.144 101.606 166.144Z" fill="white"/>
<path d="M101.606 184.738C105.029 184.738 107.804 181.963 107.804 178.54C107.804 175.117 105.029 172.342 101.606 172.342C98.1832 172.342 95.4082 175.117 95.4082 178.54C95.4082 181.963 98.1832 184.738 101.606 184.738Z" fill="white"/>
<path d="M101.606 203.332C105.029 203.332 107.804 200.557 107.804 197.134C107.804 193.711 105.029 190.936 101.606 190.936C98.1832 190.936 95.4082 193.711 95.4082 197.134C95.4082 200.557 98.1832 203.332 101.606 203.332Z" fill="white"/>
<path d="M101.606 221.926C105.029 221.926 107.804 219.151 107.804 215.728C107.804 212.305 105.029 209.53 101.606 209.53C98.1832 209.53 95.4082 212.305 95.4082 215.728C95.4082 219.151 98.1832 221.926 101.606 221.926Z" fill="white"/>
<path d="M101.606 110.361C105.029 110.361 107.804 107.586 107.804 104.163C107.804 100.74 105.029 97.9653 101.606 97.9653C98.1832 97.9653 95.4082 100.74 95.4082 104.163C95.4082 107.586 98.1832 110.361 101.606 110.361Z" fill="white"/>
<path d="M101.606 128.955C105.029 128.955 107.804 126.18 107.804 122.757C107.804 119.334 105.029 116.559 101.606 116.559C98.1832 116.559 95.4082 119.334 95.4082 122.757C95.4082 126.18 98.1832 128.955 101.606 128.955Z" fill="white"/>
<path d="M101.606 147.549C105.029 147.549 107.804 144.775 107.804 141.351C107.804 137.928 105.029 135.153 101.606 135.153C98.1832 135.153 95.4082 137.928 95.4082 141.351C95.4082 144.775 98.1832 147.549 101.606 147.549Z" fill="white"/>
<path d="M123.299 166.144C126.722 166.144 129.497 163.369 129.497 159.946C129.497 156.522 126.722 153.747 123.299 153.747C119.876 153.747 117.101 156.522 117.101 159.946C117.101 163.369 119.876 166.144 123.299 166.144Z" fill="white"/>
<path d="M123.299 184.738C126.722 184.738 129.497 181.963 129.497 178.54C129.497 175.117 126.722 172.342 123.299 172.342C119.876 172.342 117.101 175.117 117.101 178.54C117.101 181.963 119.876 184.738 123.299 184.738Z" fill="white"/>
<path d="M123.299 203.332C126.722 203.332 129.497 200.557 129.497 197.134C129.497 193.711 126.722 190.936 123.299 190.936C119.876 190.936 117.101 193.711 117.101 197.134C117.101 200.557 119.876 203.332 123.299 203.332Z" fill="white"/>
<path d="M123.299 221.926C126.722 221.926 129.497 219.151 129.497 215.728C129.497 212.305 126.722 209.53 123.299 209.53C119.876 209.53 117.101 212.305 117.101 215.728C117.101 219.151 119.876 221.926 123.299 221.926Z" fill="white"/>
<path d="M123.299 128.955C126.722 128.955 129.497 126.18 129.497 122.757C129.497 119.334 126.722 116.559 123.299 116.559C119.876 116.559 117.101 119.334 117.101 122.757C117.101 126.18 119.876 128.955 123.299 128.955Z" fill="white"/>
<path d="M123.299 147.549C126.722 147.549 129.497 144.775 129.497 141.351C129.497 137.928 126.722 135.153 123.299 135.153C119.876 135.153 117.101 137.928 117.101 141.351C117.101 144.775 119.876 147.549 123.299 147.549Z" fill="white"/>
<path d="M144.992 166.144C148.415 166.144 151.19 163.369 151.19 159.946C151.19 156.522 148.415 153.747 144.992 153.747C141.569 153.747 138.794 156.522 138.794 159.946C138.794 163.369 141.569 166.144 144.992 166.144Z" fill="white"/>
<path d="M144.992 184.738C148.415 184.738 151.19 181.963 151.19 178.54C151.19 175.117 148.415 172.342 144.992 172.342C141.569 172.342 138.794 175.117 138.794 178.54C138.794 181.963 141.569 184.738 144.992 184.738Z" fill="white"/>
<path d="M144.992 203.332C148.415 203.332 151.19 200.557 151.19 197.134C151.19 193.711 148.415 190.936 144.992 190.936C141.569 190.936 138.794 193.711 138.794 197.134C138.794 200.557 141.569 203.332 144.992 203.332Z" fill="white"/>
<path d="M144.992 221.926C148.415 221.926 151.19 219.151 151.19 215.728C151.19 212.305 148.415 209.53 144.992 209.53C141.569 209.53 138.794 212.305 138.794 215.728C138.794 219.151 141.569 221.926 144.992 221.926Z" fill="white"/>
<path d="M144.992 91.7673C148.415 91.7673 151.19 88.9923 151.19 85.5692C151.19 82.1462 148.415 79.3712 144.992 79.3712C141.569 79.3712 138.794 82.1462 138.794 85.5692C138.794 88.9923 141.569 91.7673 144.992 91.7673Z" fill="white"/>
<path d="M144.992 110.361C148.415 110.361 151.19 107.586 151.19 104.163C151.19 100.74 148.415 97.9653 144.992 97.9653C141.569 97.9653 138.794 100.74 138.794 104.163C138.794 107.586 141.569 110.361 144.992 110.361Z" fill="white"/>
<path d="M144.992 128.955C148.415 128.955 151.19 126.18 151.19 122.757C151.19 119.334 148.415 116.559 144.992 116.559C141.569 116.559 138.794 119.334 138.794 122.757C138.794 126.18 141.569 128.955 144.992 128.955Z" fill="white"/>
<path d="M144.992 147.549C148.415 147.549 151.19 144.775 151.19 141.351C151.19 137.928 148.415 135.153 144.992 135.153C141.569 135.153 138.794 137.928 138.794 141.351C138.794 144.775 141.569 147.549 144.992 147.549Z" fill="white"/>
<path d="M166.685 166.144C170.108 166.144 172.883 163.369 172.883 159.946C172.883 156.522 170.108 153.747 166.685 153.747C163.262 153.747 160.487 156.522 160.487 159.946C160.487 163.369 163.262 166.144 166.685 166.144Z" fill="white"/>
<path d="M166.685 184.738C170.108 184.738 172.883 181.963 172.883 178.54C172.883 175.117 170.108 172.342 166.685 172.342C163.262 172.342 160.487 175.117 160.487 178.54C160.487 181.963 163.262 184.738 166.685 184.738Z" fill="white"/>
<path d="M166.685 203.332C170.108 203.332 172.883 200.557 172.883 197.134C172.883 193.711 170.108 190.936 166.685 190.936C163.262 190.936 160.487 193.711 160.487 197.134C160.487 200.557 163.262 203.332 166.685 203.332Z" fill="white"/>
<path d="M166.685 221.926C170.108 221.926 172.883 219.151 172.883 215.728C172.883 212.305 170.108 209.53 166.685 209.53C163.262 209.53 160.487 212.305 160.487 215.728C160.487 219.151 163.262 221.926 166.685 221.926Z" fill="white"/>
<path d="M166.685 91.7673C170.108 91.7673 172.883 88.9923 172.883 85.5692C172.883 82.1462 170.108 79.3712 166.685 79.3712C163.262 79.3712 160.487 82.1462 160.487 85.5692C160.487 88.9923 163.262 91.7673 166.685 91.7673Z" fill="white"/>
<path d="M166.685 110.361C170.108 110.361 172.883 107.586 172.883 104.163C172.883 100.74 170.108 97.9653 166.685 97.9653C163.262 97.9653 160.487 100.74 160.487 104.163C160.487 107.586 163.262 110.361 166.685 110.361Z" fill="white"/>
<path d="M166.685 128.955C170.108 128.955 172.883 126.18 172.883 122.757C172.883 119.334 170.108 116.559 166.685 116.559C163.262 116.559 160.487 119.334 160.487 122.757C160.487 126.18 163.262 128.955 166.685 128.955Z" fill="white"/>
<path d="M166.685 147.549C170.108 147.549 172.883 144.775 172.883 141.351C172.883 137.928 170.108 135.153 166.685 135.153C163.262 135.153 160.487 137.928 160.487 141.351C160.487 144.775 163.262 147.549 166.685 147.549Z" fill="white"/>
<path d="M188.378 166.144C191.802 166.144 194.576 163.369 194.576 159.946C194.576 156.522 191.802 153.747 188.378 153.747C184.955 153.747 182.18 156.522 182.18 159.946C182.18 163.369 184.955 166.144 188.378 166.144Z" fill="white"/>
<path d="M188.378 184.738C191.802 184.738 194.576 181.963 194.576 178.54C194.576 175.117 191.802 172.342 188.378 172.342C184.955 172.342 182.18 175.117 182.18 178.54C182.18 181.963 184.955 184.738 188.378 184.738Z" fill="white"/>
<path d="M188.378 203.332C191.802 203.332 194.576 200.557 194.576 197.134C194.576 193.711 191.802 190.936 188.378 190.936C184.955 190.936 182.18 193.711 182.18 197.134C182.18 200.557 184.955 203.332 188.378 203.332Z" fill="white"/>
<path d="M188.378 221.926C191.802 221.926 194.576 219.151 194.576 215.728C194.576 212.305 191.802 209.53 188.378 209.53C184.955 209.53 182.18 212.305 182.18 215.728C182.18 219.151 184.955 221.926 188.378 221.926Z" fill="white"/>
<path d="M144.992 35.9851C148.415 35.9851 151.19 33.2101 151.19 29.7871C151.19 26.364 148.415 23.5891 144.992 23.5891C141.569 23.5891 138.794 26.364 138.794 29.7871C138.794 33.2101 141.569 35.9851 144.992 35.9851Z" fill="white"/>
<path d="M144.992 54.5791C148.415 54.5791 151.19 51.8042 151.19 48.3811C151.19 44.9581 148.415 42.1831 144.992 42.1831C141.569 42.1831 138.794 44.9581 138.794 48.3811C138.794 51.8042 141.569 54.5791 144.992 54.5791Z" fill="white"/>
<path d="M144.992 73.1732C148.415 73.1732 151.19 70.3983 151.19 66.9752C151.19 63.5521 148.415 60.7772 144.992 60.7772C141.569 60.7772 138.794 63.5521 138.794 66.9752C138.794 70.3983 141.569 73.1732 144.992 73.1732Z" fill="white"/>
<path d="M188.378 147.549C191.802 147.549 194.576 144.775 194.576 141.351C194.576 137.928 191.802 135.153 188.378 135.153C184.955 135.153 182.18 137.928 182.18 141.351C182.18 144.775 184.955 147.549 188.378 147.549Z" fill="white"/>
<path d="M210.072 166.144C213.495 166.144 216.27 163.369 216.27 159.946C216.27 156.522 213.495 153.747 210.072 153.747C206.648 153.747 203.874 156.522 203.874 159.946C203.874 163.369 206.648 166.144 210.072 166.144Z" fill="white"/>
<path d="M210.072 184.738C213.495 184.738 216.27 181.963 216.27 178.54C216.27 175.117 213.495 172.342 210.072 172.342C206.648 172.342 203.874 175.117 203.874 178.54C203.874 181.963 206.648 184.738 210.072 184.738Z" fill="white"/>
<path d="M210.072 203.332C213.495 203.332 216.27 200.557 216.27 197.134C216.27 193.711 213.495 190.936 210.072 190.936C206.648 190.936 203.874 193.711 203.874 197.134C203.874 200.557 206.648 203.332 210.072 203.332Z" fill="white"/>
<path d="M210.072 221.926C213.495 221.926 216.27 219.151 216.27 215.728C216.27 212.305 213.495 209.53 210.072 209.53C206.648 209.53 203.874 212.305 203.874 215.728C203.874 219.151 206.648 221.926 210.072 221.926Z" fill="white"/>
<path d="M210.072 91.7673C213.495 91.7673 216.27 88.9923 216.27 85.5692C216.27 82.1462 213.495 79.3712 210.072 79.3712C206.648 79.3712 203.874 82.1462 203.874 85.5692C203.874 88.9923 206.648 91.7673 210.072 91.7673Z" fill="white"/>
<path d="M210.072 110.361C213.495 110.361 216.27 107.586 216.27 104.163C216.27 100.74 213.495 97.9653 210.072 97.9653C206.648 97.9653 203.874 100.74 203.874 104.163C203.874 107.586 206.648 110.361 210.072 110.361Z" fill="white"/>
<path d="M210.072 128.955C213.495 128.955 216.27 126.18 216.27 122.757C216.27 119.334 213.495 116.559 210.072 116.559C206.648 116.559 203.874 119.334 203.874 122.757C203.874 126.18 206.648 128.955 210.072 128.955Z" fill="white"/>
<path d="M210.072 147.549C213.495 147.549 216.27 144.775 216.27 141.351C216.27 137.928 213.495 135.153 210.072 135.153C206.648 135.153 203.874 137.928 203.874 141.351C203.874 144.775 206.648 147.549 210.072 147.549Z" fill="white"/>
</g>
</g>
<defs>
<clipPath id="clip0_1_480">
<rect width="737.692" height="170.35" fill="white" transform="translate(286.926 37.5369)"/>
</clipPath>
<clipPath id="clip1_1_480">
<rect width="737.692" height="170.35" fill="white" transform="translate(286.926 37.5369)"/>
</clipPath>
<clipPath id="clip2_1_480">
<rect width="737.692" height="170.35" fill="white" transform="translate(286.926 37.5369)"/>
</clipPath>
<clipPath id="clip3_1_480">
<rect width="737.692" height="170.35" fill="white" transform="translate(286.926 37.5369)"/>
</clipPath>
<clipPath id="clip4_1_480">
<rect width="185.941" height="198.337" fill="white" transform="translate(30.3289 23.5891)"/>
</clipPath>
<clipPath id="clip5_1_480">
<rect width="185.941" height="198.337" fill="white" transform="translate(30.3289 23.5891)"/>
</clipPath>
</defs>
</svg>
