<svg width="28" height="21" viewBox="0 0 28 21" fill="none" xmlns="http://www.w3.org/2000/svg">
<path d="M26.5 3.9248V16.4248C26.5 17.2536 26.1708 18.0485 25.5847 18.6345C24.9987 19.2206 24.2038 19.5498 23.375 19.5498H4.625C3.7962 19.5498 3.00134 19.2206 2.41529 18.6345C1.82924 18.0485 1.5 17.2536 1.5 16.4248V3.9248" stroke="#A0A3BD" stroke-width="1.6" stroke-linecap="round" stroke-linejoin="round"/>
<path d="M26.5 3.9248C26.5 3.096 26.1708 2.30115 25.5847 1.7151C24.9987 1.12904 24.2038 0.799805 23.375 0.799805H4.625C3.7962 0.799805 3.00134 1.12904 2.41529 1.7151C1.82924 2.30115 1.5 3.096 1.5 3.9248L12.3437 10.6956C12.8404 11.0061 13.4143 11.1706 14 11.1706C14.5857 11.1706 15.1596 11.0061 15.6562 10.6956L26.5 3.9248Z" stroke="#A0A3BD" stroke-width="1.6" stroke-linecap="round" stroke-linejoin="round"/>
</svg>
