<svg width="24" height="28" viewBox="0 0 24 28" fill="none" xmlns="http://www.w3.org/2000/svg">
<path d="M1.0625 26.5V24.9375C1.0625 23.5012 1.34541 22.0789 1.89507 20.7519C2.44473 19.4249 3.25038 18.2192 4.26602 17.2035C5.28166 16.1879 6.4874 15.3822 7.8144 14.8326C9.1414 14.2829 10.5637 14 12 14C13.4363 14 14.8586 14.2829 16.1856 14.8326C17.5126 15.3822 18.7183 16.1879 19.734 17.2035C20.7496 18.2192 21.5553 19.4249 22.1049 20.7519C22.6546 22.0789 22.9375 23.5012 22.9375 24.9375V26.5" stroke="#A0A3BD" stroke-width="1.6" stroke-linecap="round" stroke-linejoin="round"/>
<path d="M12 14C13.6576 14 15.2473 13.3415 16.4194 12.1694C17.5915 10.9973 18.25 9.4076 18.25 7.75C18.25 6.0924 17.5915 4.50268 16.4194 3.33058C15.2473 2.15848 13.6576 1.5 12 1.5C10.3424 1.5 8.75268 2.15848 7.58058 3.33058C6.40848 4.50268 5.75 6.0924 5.75 7.75C5.75 9.4076 6.40848 10.9973 7.58058 12.1694C8.75268 13.3415 10.3424 14 12 14V14Z" stroke="#A0A3BD" stroke-width="1.6" stroke-linecap="round" stroke-linejoin="round"/>
</svg>
